<svg xmlns="http://www.w3.org/2000/svg" version="1.1" xmlns:xlink="http://www.w3.org/1999/xlink" xmlns:svgjs="http://svgjs.com/svgjs" height="82.06199645996094" width="291.3699951171875"><defs id="SvgjsDefs1235"></defs><g id="SvgjsG1236" rel="mainfill" name="main_text" xmlns:name="main_text" transform="translate(83.72000741958618,-181.35399627685547)" fill="#11ABB0"><path d="M19.67 214.76L19.67 204.77C19.67 201.66 17.03 198.90 13.80 198.90L8.22 198.90C4.99 198.90 2.35 201.66 2.35 204.77L2.35 216.93C2.35 219.33 4.99 221.51 8.22 221.51L13.80 221.51L13.80 234.13L8.22 234.13L8.22 224.21L2.35 224.21L2.35 234.13C2.35 237.30 4.99 240 8.22 240L13.80 240C17.03 240 19.67 237.30 19.67 234.13L19.67 221.51C19.67 219.04 17.03 216.93 13.80 216.93L8.22 216.93L8.22 204.77L13.80 204.77L13.80 214.76ZM30.23 198.90C27.01 198.90 24.36 201.66 24.36 204.77L24.36 234.13C24.36 237.36 27.06 240 30.23 240L35.81 240C38.98 240 41.68 237.36 41.68 234.13L41.68 204.77C41.68 201.66 39.04 198.90 35.81 198.90ZM30.23 234.13L30.23 204.77L35.81 204.77L35.81 234.13ZM52.25 240L52.25 219.75L57.83 240L63.70 240L57.83 219.45L63.70 198.90L57.83 198.90L52.25 219.16L52.25 198.90L46.38 198.90L46.38 240ZM72.50 198.90C69.28 198.90 66.63 201.66 66.63 204.77L66.63 234.13C66.63 237.36 69.33 240 72.50 240L78.08 240C81.25 240 83.95 237.36 83.95 234.13L83.95 204.77C83.95 201.66 81.31 198.90 78.08 198.90ZM72.50 234.13L72.50 204.77L78.08 204.77L78.08 234.13ZM94.52 234.13L94.52 198.90L88.65 198.90L88.65 234.13C88.65 237.24 91.29 240 94.52 240L105.97 240L105.97 234.13ZM114.77 198.90C111.55 198.90 108.90 201.66 108.90 204.77L108.90 234.13C108.90 237.36 111.60 240 114.77 240L120.35 240C123.52 240 126.22 237.36 126.22 234.13L126.22 204.77C126.22 201.66 123.58 198.90 120.35 198.90ZM114.77 234.13L114.77 204.77L120.35 204.77L120.35 234.13ZM134.79 240L140.67 240L146.30 198.90L140.96 198.90L137.73 222.45L134.50 198.90L129.16 198.90ZM165.97 204.77L165.97 198.90L154.52 198.90C151.29 198.90 148.65 201.66 148.65 204.77L148.65 216.93C148.65 219.33 151.29 221.51 154.52 221.51L160.10 221.51L160.10 234.13L148.65 234.13L148.65 240L160.10 240C163.33 240 165.97 237.30 165.97 234.13L165.97 221.51C165.97 219.04 163.33 216.93 160.10 216.93L154.52 216.93L154.52 204.77ZM175.95 240L175.95 219.75L181.53 240L187.40 240L181.53 219.45L187.40 198.90L181.53 198.90L175.95 219.16L175.95 198.90L170.08 198.90L170.08 240ZM201.78 198.90L201.78 228.20L196.20 228.20L196.20 198.90L190.33 198.90L190.33 228.20C190.33 231.43 193.03 234.13 196.20 234.13L201.78 234.13L201.78 240L190.33 240L190.33 245.87L201.78 245.87C205.01 245.87 207.65 243.11 207.65 240L207.65 198.90Z" fill="#222222" style="fill: rgb(34, 34, 34);"></path></g><g id="SvgjsG1237" rel="mainfill" name="symbol" xmlns:name="symbol_mainfill" transform="translate(-9.46500015258789,-3.9690001010894775) scale(1)" fill="#222222"><polygon points="38.182,57.753 20.18,47.91 20.18,42.455 38.182,32.652 38.182,39.074 25.625,45.113 38.182,51.379 "></polygon><polygon points="39.848,62.08 46.351,27.918 50.136,27.918 43.56,62.08 "></polygon><polygon points="51.8,57.78 51.8,51.4 64.372,45.181 51.8,39.028 51.8,32.696 69.82,42.5 69.82,47.91 "></polygon><path d="M44.999,86.031L9.465,65.517V24.484L44.999,3.969l35.536,20.516v41.029L44.999,86.031L44.999,86.031z M13.07,63.434  l31.929,18.434L76.93,63.434V26.566L44.999,8.131L13.07,26.565V63.434L13.07,63.434z" fill="#222222" style="fill: rgb(34, 34, 34);"></path></g></svg>